#!OML:ASF E:\motion texture\Top Level 1\Subject 1\Session 1\male.ASF
:FULLY-SPECIFIED
:DEGREES
236
root 2.11692 18.2329 3.91083 400.576 -72.3287 -396.302
lowerback 3.04199 3.28533 11.0702
upperback -4.68247 4.91156 -2.7466
thorax -5.52771 1.86309 -9.5033
lowerneck -14.4154 -9.09986 -14.558
upperneck 12.2276 -9.09418 -1.16272
head 6.73244 -5.18015 0.937756
rclavicle 4.4975e-014 -3.65764e-014
rhumerus 55.6554 -48.7807 -31.4385
rradius 137.421
rwrist 21.042
rhand -48.5502 -34.4152
rfingers 7.12502
rthumb -21.197 -63.2763
lclavicle 4.4975e-014 -3.65764e-014
lhumerus -57.083 19.5291 43.1793
lradius 27.1139
lwrist -22.8252
lhand -7.40225 20.4728
lfingers 7.12502
lthumb 18.4839 49.6146
rfemur -9.35485 -10.2037 36.8835
rtibia 17.6667
rfoot -13.5766 -11.465
rtoes 14.8045
lfemur -16.4763 -6.36578 0.744761
ltibia 51.8268
lfoot -5.43965 -4.46852
ltoes -10.292
237
root 2.01488 18.2426 3.89729 401.057 -72.4715 -396.697
lowerback 2.98788 3.34179 11.1428
upperback -4.76334 4.98653 -2.76877
thorax -5.5595 1.88996 -9.57157
lowerneck -14.3719 -9.26026 -14.8702
upperneck 12.2228 -9.29044 -0.89359
head 6.76415 -5.26532 1.04592
rclavicle -2.66371e-014 -4.77083e-015
rhumerus 55.9948 -48.3234 -31.9273
rradius 136.812
rwrist 21.3986
rhand -48.7302 -34.7156
rfingers 7.12502
rthumb -21.3699 -63.5572
lclavicle -2.66371e-014 -4.77083e-015
lhumerus -56.7302 19.4251 43.9052
lradius 27.524
lwrist -22.5206
lhand -7.47138 20.2906
lfingers 7.12502
lthumb 18.4174 49.4388
rfemur -8.86032 -9.94593 37.007
rtibia 17.2439
rfoot -13.4285 -11.4954
rtoes 15.0858
lfemur -17.2193 -6.24166 0.603253
ltibia 51.3177
lfoot -6.2275 -4.30953
ltoes -11.0371
238
root 1.91375 18.252 3.88434 401.553 -72.6347 -397.099
lowerback 2.92734 3.40217 11.1961
upperback -4.84617 5.06472 -2.79112
thorax -5.58995 1.91922 -9.62854
lowerneck -14.3158 -9.42223 -15.1361
upperneck 12.1849 -9.49499 -0.673269
head 6.77984 -5.35509 1.13185
rclavicle -5.35725e-014 1.74931e-014
rhumerus 56.1799 -47.8434 -32.2813
rradius 135.733
rwrist 21.4677
rhand -48.787 -34.8927
rfingers 7.12502
rthumb -21.4244 -63.7281
lclavicle -5.35725e-014 1.74931e-014
lhumerus -56.3511 19.3047 44.6625
lradius 27.942
lwrist -22.2617
lhand -7.57587 20.1332
lfingers 7.12502
lthumb 18.3169 49.2908
rfemur -8.38345 -9.66526 37.1178
rtibia 16.8327
rfoot -13.2705 -11.5478
rtoes 15.3612
lfemur -17.9451 -6.11573 0.441555
ltibia 50.7126
lfoot -7.00189 -4.14144
ltoes -11.9468
239
root 1.81357 18.2614 3.87236 402.037 -72.8193 -397.48
lowerback 2.86242 3.46837 11.2312
upperback -4.92906 5.14867 -2.81942
thorax -5.61704 1.95223 -9.68125
lowerneck -14.251 -9.58937 -15.4062
upperneck 12.123 -9.7104 -0.436045
head 6.7889 -5.44785 1.22308
rclavicle -2.9271e-014 6.36111e-015
rhumerus 56.2174 -47.3364 -32.4982
rradius 134.202
rwrist 21.2798
rhand -48.6755 -34.9354
rfingers 7.12502
rthumb -21.3173 -63.783
lclavicle -2.9271e-014 6.36111e-015
lhumerus -55.9407 19.1635 45.4469
lradius 28.3702
lwrist -22.0601
lhand -7.68073 19.9725
lfingers 7.12502
lthumb 18.216 49.1396
rfemur -7.92491 -9.37136 37.2058
rtibia 16.4337
rfoot -13.1052 -11.6146
rtoes 15.6841
lfemur -18.653 -5.99049 0.250012
ltibia 50.0144
lfoot -7.72008 -3.97031
ltoes -12.8291
240
root 1.71428 18.2704 3.86106 402.516 -73.0195 -397.85
lowerback 2.79265 3.53839 11.2483
upperback -5.00994 5.23569 -2.85214
thorax -5.63904 1.98796 -9.72792
lowerneck -14.1676 -9.76116 -15.6205
upperneck 12.0173 -9.94136 -0.246777
head 6.77717 -5.54781 1.29073
rclavicle -5.1684e-015 4.29375e-014
rhumerus 56.1561 -46.7948 -32.6118
rradius 132.242
rwrist 20.83
rhand -48.4242 -34.9603
rfingers 7.12502
rthumb -21.076 -63.8349
lclavicle -5.1684e-015 4.29375e-014
lhumerus -55.5062 18.9936 46.2586
lradius 28.8223
lwrist -21.8881
lhand -7.78844 19.8345
lfingers 7.12502
lthumb 18.1124 49.0112
rfemur -7.48459 -9.05692 37.2792
rtibia 16.0505
rfoot -12.9347 -11.7038
rtoes 16.0639
lfemur -19.3406 -5.86771 0.0398164
ltibia 49.2254
lfoot -8.35972 -3.80208
ltoes -13.5281
